<svg width="40" height="40" viewBox="0 0 40 40" fill="none" xmlns="http://www.w3.org/2000/svg">
<path fill-rule="evenodd" clip-rule="evenodd" d="M5 0C2.23858 0 0 2.23858 0 5V35C0 37.7614 2.23858 40 5 40H35C37.7614 40 40 37.7614 40 35V5C40 2.23858 37.7614 0 35 0H5ZM6.25 19.9999C6.25 16.029 16.0292 6.25 19.9999 6.25C23.9708 6.25 33.75 16.0292 33.75 19.9999C33.75 23.9706 23.9706 33.75 19.9999 33.75C16.0292 33.75 6.25 23.9708 6.25 19.9999Z" fill="#836EF9"/>
<path d="M12.1374 17.8572C11.6811 19.5316 16.1828 27.4063 17.8572 27.8626C19.5316 28.3189 27.4062 23.8172 27.8626 22.1427C28.3189 20.4683 23.8172 12.5937 22.1427 12.1374C20.4683 11.6811 12.5938 16.1827 12.1374 17.8572Z" fill="#836EF9"/>
</svg>
